<svg xmlns="http://www.w3.org/2000/svg" xmlns:cc="http://creativecommons.org/ns#" xmlns:dc="http://purl.org/dc/elements/1.1/" xmlns:inkscape="http://www.inkscape.org/namespaces/inkscape" xmlns:rdf="http://www.w3.org/1999/02/22-rdf-syntax-ns#" xmlns:sodipodi="http://sodipodi.sourceforge.net/DTD/sodipodi-0.dtd"  height="612px" id="svg3453" version="1.0" width="612px" xmlns:xlink="http://www.w3.org/1999/xlink" viewBox="17.778900146484375 17.19650650024414 576.4421997070312 577.528076171875"><rect id="svgEditorBackground" x="17.778900146484375" y="17.19650650024414" width="576.4421997070312" height="577.528076171875" style="fill: none; stroke: none;"/><defs id="defs3455"><marker id="ArrowEnd" markerHeight="3" markerUnits="strokeWidth" markerWidth="4" orient="auto" refX="0" refY="5" viewBox="0 0 10 10"><path d="M 0,0 L 10,5 L 0,10 L 0,0 z" id="path3458"/></marker><marker id="ArrowStart" markerHeight="3" markerUnits="strokeWidth" markerWidth="4" orient="auto" refX="10" refY="5" viewBox="0 0 10 10"><path d="M 10,0 L 0,5 L 10,10 L 10,0 z" id="path3461"/></marker></defs><g id="g3463" transform="translate(-8.19e-2,-0.5853944)"><path d="M 82.4318,17.9239 C 41.0968,17.9239 17.8608,39.2949 17.8608,82.9599 L 17.8608,533.082 C 17.8608,573.925 38.7518,595.31 80.0528,595.31 L 532.077,595.31 C 573.38,595.31 594.303,574.99 594.303,533.082 L 594.303,82.9599 C 594.303,40.3599 573.38,17.9239 530.78,17.9239 C 530.78,17.9239 82.2888,17.7819 82.4318,17.9239 z" id="path3465" style="fill: rgb(0, 0, 139); stroke: none; stroke-width: 3.408px;"/><g id="g3467"><path d="M 173.378,399.764 L 173.343,399.764 L 109.874,399.764 L 109.874,419.605 C 109.874,443.76 74.5818,444.047 74.5818,419.605 L 74.5818,399.764 L 55.7978,399.764 L 55.7978,337.627 C 55.7978,320.949 69.3468,312.136 76.9978,311.174 L 96.3138,262.335 C 99.9498,253.035 107.828,245.086 122.675,245.086 L 150.272,245.086 L 150.272,232.335 C 150.272,227.235 153.065,224.645 157.61,224.645 L 173.343,224.645 L 173.378,224.645 L 173.34,224.645 L 173.376,224.645 L 189.412,224.645 C 193.957,224.645 196.75,227.235 196.75,232.335 L 196.75,245.086 L 224.03,245.086 C 238.877,245.086 246.755,253.035 250.391,262.335 L 269.707,311.174 C 277.358,312.136 290.921,320.949 290.921,337.627 L 290.921,399.764 L 272.137,399.764 L 272.137,419.605 C 272.137,444.047 236.845,443.76 236.845,419.605 L 236.845,399.764 L 173.376,399.764 L 173.34,399.764 L 173.378,399.764 z" id="path3469" style="fill:#ffffff;stroke:none"/><path d="M 430.183,131.771 C 401.364,131.771 361.564,139.881 345.095,146.639 C 328.627,153.396 317.648,160.154 314.217,177.049 L 301.866,270.71 L 301.866,399.768 L 323.137,399.768 L 323.137,420.006 C 323.137,444.683 359.804,444.683 359.804,420.006 L 359.804,399.768 L 427.498,399.768 L 427.713,399.768 L 498.092,399.768 L 498.092,420.006 C 498.092,444.683 534.759,444.683 534.759,420.006 L 534.759,399.768 L 556.03,399.768 L 556.03,270.71 L 543.679,177.049 C 540.248,160.154 529.269,153.396 512.801,146.639 C 496.332,139.881 456.532,131.771 427.713,131.771" id="path3471" style="fill:#ffffff;stroke:none"/><g id="g3473"><g id="g3475"><path d="M173.34,308.80787720999996L173.305,308.80787720999996L96.9958,308.80787720999996L111.539,271.01887720999997C113.357,265.61887720999994,116.085,261.71887720999996,122.448,261.66087720999997L173.305,261.66087720999997L173.34,261.66087720999997L173.376,261.66087720999997L224.258,261.66087720999997C230.621,261.71887720999996,233.348,265.61887720999994,235.166,271.01887720999997L249.709,308.80787720999996L173.376,308.80787720999996L173.34,308.80787720999996Z" id="path3477" style="fill: rgb(0, 0, 139); stroke: none;"/><g id="g3479"><g id="g3481"><path d="M 92.7898,361.778 C 83.7868,361.778 76.4878,354.403 76.4878,345.308 C 76.4878,336.212 83.7868,328.838 92.7898,328.838 C 101.793,328.838 109.091,336.212 109.091,345.308 C 109.091,354.403 101.793,361.778 92.7898,361.778 z" id="path3483" style="fill: rgb(0, 0, 139); stroke: none;"/><path id="path3485" style="fill:#000000;stroke:none"/></g><g id="g3487"><path d="M 253.916,361.778 C 262.919,361.778 270.217,354.403 270.217,345.308 C 270.217,336.212 262.919,328.838 253.916,328.838 C 244.913,328.838 237.614,336.212 237.614,345.308 C 237.614,354.403 244.913,361.778 253.916,361.778 z" id="path3489" style="fill: rgb(0, 0, 139); stroke: none;"/><path id="path3491" style="fill:#000000;stroke:none"/></g></g></g><g id="g3493"><g id="g3495"><g id="g3497"><path d="M516.41,358.09387720999996C526.124,358.09387720999996,533.999,350.33687720999995,533.999,340.77087721C533.999,331.20387721,526.124,323.44687720999997,516.41,323.44687720999997C506.697,323.44687720999997,498.821,331.20387721,498.821,340.77087721C498.821,350.33687720999995,506.697,358.09387720999996,516.41,358.09387720999996Z" id="path3499" style="fill: rgb(0, 0, 139); stroke: none;"/><path id="path3501" style="fill:#000000;stroke:none"/></g><g id="g3503"><path d="M341.486,358.09387720999996C331.773,358.09387720999996,323.898,350.33687720999995,323.898,340.77087721C323.898,331.20387721,331.773,323.44687720999997,341.486,323.44687720999997C351.199,323.44687720999997,359.075,331.20387721,359.075,340.77087721C359.075,350.33687720999995,351.199,358.09387720999996,341.486,358.09387720999996Z" id="path3505" style="fill: rgb(0, 0, 139); stroke: none;"/><path id="path3507" style="fill:#000000;stroke:none"/></g></g><path d="M 427.588,170.629 L 376.661,170.629 C 366.368,170.629 366.368,155.424 376.661,155.424 L 427.713,155.424 L 481.235,155.424 C 491.528,155.424 491.528,170.629 481.235,170.629 L 427.588,170.629 z" id="path3509" style="fill: rgb(0, 0, 139); stroke: none;"/><path d="M 427.588,185.981 L 348.912,185.981 C 338.039,185.981 335.198,191.422 333.878,199.675 L 324.265,267.606 C 323.368,274.117 325.281,280.581 334.415,280.581 L 427.713,280.581 L 523.481,280.581 C 532.615,280.581 534.528,274.117 533.631,267.606 L 524.018,199.675 C 522.698,191.422 519.857,185.981 508.984,185.981 L 427.588,185.981 z" id="path3511" style="fill: rgb(0, 0, 139); stroke: none;"/></g></g></g></g></svg>