<svg xmlns="http://www.w3.org/2000/svg" xmlns:xlink="http://www.w3.org/1999/xlink" version="1.1" id="Facebook" x="0px" y="0px" width="100px" height="100px" viewBox="0 0 100 100" enable-background="new 0 0 100 100" xml:space="preserve"  preserveAspectRatio="xMidYMid meet"><rect id="svgEditorBackground" x="0" y="0" width="100" height="100" style="fill: none; stroke: none;"/>
<path fill-rule="evenodd" clip-rule="evenodd" d="M50,0c-27.614,0,-50,22.386,-50,50c0,27.614000000000004,22.386,50,50,50s50,-22.385999999999996,50,-50c0,-27.614,-22.385999999999996,-50,-50,-50ZM56.953,36.94c3.5420000000000016,0.036999999999999034,7.230000000000004,-0.0730000000000004,10.682999999999993,0.054999999999999716c-0.11599999999999966,3.683,-0.027000000000001023,7.57,-0.055999999999997385,11.339999999999996c-3.5420000000000016,0,-7.085000000000001,0,-10.627000000000002,0c0,11.668,0,23.337000000000003,0,35.00500000000001c-4.984999999999999,0,-9.970999999999997,0,-14.955999999999996,0c0,-11.650000000000006,0,-23.299999999999997,0,-34.95c-3.103999999999999,-0.1280000000000001,-6.445999999999998,-0.01899999999999835,-9.641999999999996,-0.054999999999999716c0,-3.798000000000002,0,-7.5959999999999965,0,-11.395000000000003c3.1769999999999996,0,6.355000000000004,0,9.531999999999996,0c0.14099999999999824,-2.987000000000002,-0.04399999999999693,-5.6739999999999995,0.16499999999999915,-8.107c0.20199999999999818,-2.353999999999999,0.9909999999999997,-4.370000000000001,2.136000000000003,-6.0809999999999995c2.174999999999997,-3.248000000000001,5.799999999999997,-5.794999999999998,10.683,-6.025000000000002c4.036999999999999,-0.19099999999999895,8.545000000000002,0.09700000000000131,12.764999999999993,0.054999999999999716c-0.03700000000000614,3.780000000000001,0.07200000000000273,7.7059999999999995,-0.055999999999997385,11.395c-2.1299999999999955,0.12199999999999989,-4.272999999999996,-0.16300000000000026,-6.134999999999998,0c-1.8969999999999985,0.16499999999999915,-3.271000000000001,1.3369999999999997,-3.9450000000000003,2.7390000000000008c-0.7530000000000001,1.5660000000000025,-0.5290000000000035,3.642000000000003,-0.546999999999997,6.024000000000001Z" fill="#00008B"/>
</svg>