<svg xmlns="http://www.w3.org/2000/svg" xmlns:xlink="http://www.w3.org/1999/xlink" version="1.1" id="Layer_1" x="0px" y="0px" width="100px" height="100px" viewBox="0 0 100 100" enable-background="new 0 0 100 100" xml:space="preserve" ><rect id="svgEditorBackground" x="0" y="0" width="100" height="100" style="fill: none; stroke: none;"/>
<g>
	<path fill-rule="evenodd" clip-rule="evenodd" d="M36.509,56.759c-3.8629999999999995,0.267000000000003,-7.366,1.8639999999999972,-9.091000000000001,3.908999999999999c-0.7839999999999989,0.9299999999999997,-1.6819999999999986,2.6640000000000015,-1.7289999999999992,4.2719999999999985c-0.036999999999999034,1.2650000000000006,0.35300000000000153,2.450000000000003,0.8180000000000014,3.272999999999996c1.5229999999999997,2.6880000000000024,4.965,4.385000000000005,8.729000000000003,4.638000000000005c4.960000000000001,0.33199999999999363,10.423000000000002,-1.9789999999999992,12.091999999999999,-5.911000000000001c0.6169999999999973,-1.4500000000000028,0.652000000000001,-3.520000000000003,0,-5c-1.4860000000000042,-3.375,-5.997,-5.515000000000001,-10.819000000000003,-5.180999999999997Z" fill="#00008B"/>
	<path fill-rule="evenodd" clip-rule="evenodd" d="M39.964,28.483c-1.3440000000000012,-1.343,-3.0790000000000006,-2.4849999999999994,-5.454999999999998,-2.1819999999999986c-3.9299999999999997,0.5019999999999989,-5.847999999999999,4.948,-5.091999999999999,9.728000000000002c0.5219999999999985,3.296999999999997,2.914999999999999,7.216000000000001,5.728999999999999,8.455999999999996c1.0189999999999984,0.4480000000000004,2.3569999999999993,0.6739999999999995,3.6370000000000005,0.3639999999999972c3.2070000000000007,-0.7779999999999987,4.859000000000002,-4.652999999999999,4.545999999999999,-8.729c-0.2120000000000033,-2.729999999999997,-1.631999999999998,-5.903999999999996,-3.365000000000002,-7.636999999999997Z" fill="#00008B"/>
	<path fill-rule="evenodd" clip-rule="evenodd" d="M50,0c-27.614,0,-50,22.386,-50,50c0,27.614000000000004,22.386,50,50,50s50,-22.385999999999996,50,-50c0,-27.614,-22.385999999999996,-50,-50,-50ZM47.056,26.938c0.9339999999999975,0.6389999999999993,1.9149999999999991,1.6700000000000017,2.363999999999997,2.8180000000000014c0.6989999999999981,1.7860000000000014,0.7280000000000015,3.7860000000000014,0.7280000000000015,5.819000000000003c0,5.105000000000004,-2.753,7.314999999999998,-5.545999999999999,9.728000000000002c-1.1019999999999968,0.9519999999999982,-2.1099999999999994,1.8350000000000009,-2.0919999999999987,3.0009999999999977c0.020000000000003126,1.2719999999999985,1.2700000000000031,2.299999999999997,2.183,3.091000000000001c2.796999999999997,2.4279999999999973,6.024999999999999,4.5290000000000035,7.363999999999997,8.274000000000001c0.3290000000000006,0.9209999999999994,0.536999999999999,2.1060000000000016,0.5450000000000017,3.2730000000000032c0.054000000000002046,8.203000000000003,-5.643999999999998,11.876999999999995,-12.365000000000002,13.091999999999999c-7.969000000000001,1.4399999999999977,-16.247,-0.23499999999999943,-19.274,-5.272999999999996c-0.7850000000000001,-1.3059999999999974,-1.154,-2.546999999999997,-1.2729999999999997,-4.182000000000002c-0.6990000000000016,-9.625999999999998,9.157,-11.835999999999999,18.185,-12.093000000000004c-0.15100000000000335,-0.7950000000000017,-0.240000000000002,-1.2449999999999974,-0.7280000000000015,-1.8179999999999978c-0.42199999999999704,-0.4960000000000022,-1.118000000000002,-0.7469999999999999,-1.2719999999999985,-1.2730000000000032c-0.2920000000000016,-0.990000000000002,0.21000000000000085,-2.0870000000000033,0,-3.4549999999999983c-8.709,0.37599999999999767,-13.651,-4.429000000000002,-13.002000000000002,-12.455999999999996c0.6170000000000009,-7.629999999999999,6.5120000000000005,-10.953,14.093000000000004,-11.819000000000003c4.5319999999999965,-0.5189999999999984,10.349000000000004,0.19699999999999918,15.637999999999998,-0.09100000000000108c-0.6319999999999979,2.4589999999999996,-4.920000000000002,1.2629999999999981,-6.728999999999999,2.5459999999999994c0.3790000000000049,0.4399999999999942,0.8390000000000057,0.5829999999999949,1.1810000000000045,0.8179999999999943ZM80.332,36.938c-3.424999999999997,0,-6.849999999999994,0,-10.274000000000001,0c0.001999999999995339,3.335000000000001,-0.0010000000000047748,7.150999999999996,0,10.183c-0.8490000000000038,0.21099999999999852,-2.090999999999994,0.030000000000001137,-3.090999999999994,0.09100000000000108c0,-3.424999999999997,0,-6.849000000000004,0,-10.274000000000001c-3.4239999999999995,0,-6.850000000000001,0,-10.274000000000001,0c0.05700000000000216,-1.0039999999999978,-0.11399999999999721,-2.237000000000002,0.09199999999999875,-3.091000000000001c3.395000000000003,0,6.787999999999997,0,10.182999999999993,0c0.06100000000000705,-3.3949999999999996,-0.12099999999999511,-7.030999999999999,0.09099999999999397,-10.274000000000001c0.9699999999999989,0,1.9399999999999977,0,2.909000000000006,0c0.2120000000000033,3.2439999999999998,0.03100000000000591,6.879000000000001,0.09099999999999397,10.274000000000001c3.394999999999996,0,6.7890000000000015,0,10.183999999999997,0c0.20400000000002194,0.8549999999999969,0.03300000000001546,2.086999999999996,0.08900000000001285,3.091000000000001Z" fill="#00008B"/>
</g>
</svg>