<svg xmlns="http://www.w3.org/2000/svg" xmlns:xlink="http://www.w3.org/1999/xlink" version="1.1" id="Layer_1" x="0px" y="0px" width="100px" height="100px" viewBox="0 0 100 100" enable-background="new 0 0 100 100" xml:space="preserve" ><rect id="svgEditorBackground" x="0" y="0" width="100" height="100" style="fill: none; stroke: none;"/>
<path fill-rule="evenodd" clip-rule="evenodd" d="M50,0c-27.614,0,-50,22.386,-50,50s22.386,50,50,50s50,-22.385999999999996,50,-50s-22.385999999999996,-50,-50,-50ZM76.672,36.356c0.2710000000000008,9.100999999999999,-2.2720000000000056,16.407000000000004,-5.653000000000006,22.091c-3.3430000000000035,5.617000000000004,-7.828000000000003,10.079000000000008,-13.192,13.349000000000004c-5.4040000000000035,3.293999999999997,-12.634,5.679999999999993,-21.097,5.444000000000003c-7.908000000000001,-0.21999999999999886,-14.182000000000002,-2.4939999999999998,-19.317,-5.602000000000004c-0.3210000000000015,-0.19400000000000261,-0.7149999999999999,-0.35200000000000387,-0.9420000000000002,-0.6809999999999974c8.762,1,15.524000000000001,-1.9320000000000022,20.259,-5.600999999999999c-3.5050000000000026,-0.11199999999999477,-6.167999999999999,-1.347999999999999,-8.219000000000001,-2.9840000000000018c-2.0429999999999993,-1.6310000000000002,-3.7040000000000006,-3.8389999999999986,-4.554000000000002,-6.648000000000003c1.783999999999999,0.43200000000000216,4.384999999999998,0.31799999999999784,6.02,-0.1559999999999988c-3.279,-0.732999999999997,-5.722000000000001,-2.4919999999999973,-7.591000000000001,-4.660000000000004c-1.8520000000000003,-2.1480000000000032,-3.2390000000000008,-5.030999999999999,-3.245000000000001,-8.951999999999998c0.11199999999999832,-0.1700000000000017,0.38500000000000156,0.11399999999999721,0.5749999999999993,0.21000000000000085c1.4520000000000017,0.7289999999999992,3.358999999999998,1.3019999999999996,5.497,1.4140000000000015c-3.353999999999999,-2.413000000000004,-6.7620000000000005,-7.036000000000001,-5.811,-13.454c0.277000000000001,-1.873000000000001,0.9390000000000001,-3.503,1.6750000000000007,-4.869c0.9239999999999995,0.8550000000000004,1.6750000000000007,1.8840000000000003,2.5650000000000013,2.774000000000001c6.163999999999998,6.1640000000000015,14.210000000000004,10.722999999999999,25.755999999999997,11.57c-1.3770000000000024,-7.294000000000004,2.290999999999997,-12.649999999999999,6.805,-15.182000000000002c2.4570000000000007,-1.376999999999999,6.018000000000001,-2.099,9.424,-1.4140000000000015c3.102000000000004,0.625,5.477999999999994,2.1900000000000013,7.328000000000003,4.030999999999999c3.391999999999996,-0.6219999999999999,6.134,-1.8930000000000007,8.742000000000004,-3.2970000000000006c-1.152000000000001,3.349,-3.135000000000005,5.869,-5.9680000000000035,7.538c2.844999999999999,-0.24399999999999977,5.465000000000003,-1.1660000000000004,7.801000000000002,-2.094000000000001c-1.8449999999999847,2.8329999999999984,-4.1969999999999885,5.157000000000004,-6.85799999999999,7.173000000000002Z" fill="#00008B"/>
</svg>